<svg width="512" height="512" viewBox="0 0 512 512" fill="none" xmlns="http://www.w3.org/2000/svg">
<path d="M0 0H512V512H0V0Z" fill="#F1F1F1"/>
<path d="M0 0H512V512H0V0Z" fill="#202020"/>
<circle cx="396" cy="182" r="92" fill="#145DA0"/>
<circle cx="97" cy="97" r="81" fill="#BACCDD"/>
<circle cx="166.5" cy="347.5" r="117.5" fill="#F1F1F1"/>
<path d="M34.9883 48.4336H38.6992V52.1445H27.5664V48.4336H31.2773V33.5898H27.5664V29.8789H29.4219V28.0234H31.2773V26.168H34.9883V48.4336ZM163.016 41.0117V39.1562H164.871V37.3008H166.727V35.4453H168.582V33.5898H172.293V31.7344H170.438V29.8789H163.016V31.7344H161.16V41.0117H163.016ZM161.16 44.7227V46.5781H163.016V48.4336H170.438V46.5781H172.293V37.3008H170.438V39.1562H168.582V41.0117H166.727V42.8672H164.871V44.7227H161.16ZM161.16 28.0234V26.168H172.293V28.0234H174.148V29.8789H176.004V48.4336H174.148V50.2891H172.293V52.1445H161.16V50.2891H159.305V48.4336H157.449V29.8789H159.305V28.0234H161.16ZM257.645 48.4336H261.355V52.1445H250.223V48.4336H253.934V33.5898H250.223V29.8789H252.078V28.0234H253.934V26.168H257.645V48.4336ZM279.91 48.4336H283.621V52.1445H272.488V48.4336H276.199V33.5898H272.488V29.8789H274.344V28.0234H276.199V26.168H279.91V48.4336ZM318.875 41.0117V39.1562H320.73V37.3008H322.586V35.4453H324.441V33.5898H328.152V31.7344H326.297V29.8789H318.875V31.7344H317.02V41.0117H318.875ZM317.02 44.7227V46.5781H318.875V48.4336H326.297V46.5781H328.152V37.3008H326.297V39.1562H324.441V41.0117H322.586V42.8672H320.73V44.7227H317.02ZM317.02 28.0234V26.168H328.152V28.0234H330.008V29.8789H331.863V48.4336H330.008V50.2891H328.152V52.1445H317.02V50.2891H315.164V48.4336H313.309V29.8789H315.164V28.0234H317.02ZM413.504 48.4336H417.215V52.1445H406.082V48.4336H409.793V33.5898H406.082V29.8789H407.938V28.0234H409.793V26.168H413.504V48.4336ZM458.035 48.4336H461.746V52.1445H450.613V48.4336H454.324V33.5898H450.613V29.8789H452.469V28.0234H454.324V26.168H458.035V48.4336ZM57.2539 122.434H60.9648V126.145H49.832V122.434H53.543V107.59H49.832V103.879H51.6875V102.023H53.543V100.168H57.2539V122.434ZM118.484 115.012V113.156H120.34V111.301H122.195V109.445H124.051V107.59H127.762V105.734H125.906V103.879H118.484V105.734H116.629V115.012H118.484ZM116.629 118.723V120.578H118.484V122.434H125.906V120.578H127.762V111.301H125.906V113.156H124.051V115.012H122.195V116.867H120.34V118.723H116.629ZM116.629 102.023V100.168H127.762V102.023H129.617V103.879H131.473V122.434H129.617V124.289H127.762V126.145H116.629V124.289H114.773V122.434H112.918V103.879H114.773V102.023H116.629ZM168.582 122.434H172.293V126.145H161.16V122.434H164.871V107.59H161.16V103.879H163.016V102.023H164.871V100.168H168.582V122.434ZM318.875 115.012V113.156H320.73V111.301H322.586V109.445H324.441V107.59H328.152V105.734H326.297V103.879H318.875V105.734H317.02V115.012H318.875ZM317.02 118.723V120.578H318.875V122.434H326.297V120.578H328.152V111.301H326.297V113.156H324.441V115.012H322.586V116.867H320.73V118.723H317.02ZM317.02 102.023V100.168H328.152V102.023H330.008V103.879H331.863V122.434H330.008V124.289H328.152V126.145H317.02V124.289H315.164V122.434H313.309V103.879H315.164V102.023H317.02ZM368.973 122.434H372.684V126.145H361.551V122.434H365.262V107.59H361.551V103.879H363.406V102.023H365.262V100.168H368.973V122.434ZM452.469 115.012V113.156H454.324V111.301H456.18V109.445H458.035V107.59H461.746V105.734H459.891V103.879H452.469V105.734H450.613V115.012H452.469ZM450.613 118.723V120.578H452.469V122.434H459.891V120.578H461.746V111.301H459.891V113.156H458.035V115.012H456.18V116.867H454.324V118.723H450.613ZM450.613 102.023V100.168H461.746V102.023H463.602V103.879H465.457V122.434H463.602V124.289H461.746V126.145H450.613V124.289H448.758V122.434H446.902V103.879H448.758V102.023H450.613ZM51.6875 189.012V187.156H53.543V185.301H55.3984V183.445H57.2539V181.59H60.9648V179.734H59.1094V177.879H51.6875V179.734H49.832V189.012H51.6875ZM49.832 192.723V194.578H51.6875V196.434H59.1094V194.578H60.9648V185.301H59.1094V187.156H57.2539V189.012H55.3984V190.867H53.543V192.723H49.832ZM49.832 176.023V174.168H60.9648V176.023H62.8203V177.879H64.6758V196.434H62.8203V198.289H60.9648V200.145H49.832V198.289H47.9766V196.434H46.1211V177.879H47.9766V176.023H49.832ZM207.547 189.012V187.156H209.402V185.301H211.258V183.445H213.113V181.59H216.824V179.734H214.969V177.879H207.547V179.734H205.691V189.012H207.547ZM205.691 192.723V194.578H207.547V196.434H214.969V194.578H216.824V185.301H214.969V187.156H213.113V189.012H211.258V190.867H209.402V192.723H205.691ZM205.691 176.023V174.168H216.824V176.023H218.68V177.879H220.535V196.434H218.68V198.289H216.824V200.145H205.691V198.289H203.836V196.434H201.98V177.879H203.836V176.023H205.691ZM296.609 189.012V187.156H298.465V185.301H300.32V183.445H302.176V181.59H305.887V179.734H304.031V177.879H296.609V179.734H294.754V189.012H296.609ZM294.754 192.723V194.578H296.609V196.434H304.031V194.578H305.887V185.301H304.031V187.156H302.176V189.012H300.32V190.867H298.465V192.723H294.754ZM294.754 176.023V174.168H305.887V176.023H307.742V177.879H309.598V196.434H307.742V198.289H305.887V200.145H294.754V198.289H292.898V196.434H291.043V177.879H292.898V176.023H294.754ZM346.707 196.434H350.418V200.145H339.285V196.434H342.996V181.59H339.285V177.879H341.141V176.023H342.996V174.168H346.707V196.434ZM435.77 196.434H439.48V200.145H428.348V196.434H432.059V181.59H428.348V177.879H430.203V176.023H432.059V174.168H435.77V196.434ZM458.035 196.434H461.746V200.145H450.613V196.434H454.324V181.59H450.613V177.879H452.469V176.023H454.324V174.168H458.035V196.434ZM57.2539 270.434H60.9648V274.145H49.832V270.434H53.543V255.59H49.832V251.879H51.6875V250.023H53.543V248.168H57.2539V270.434ZM163.016 263.012V261.156H164.871V259.301H166.727V257.445H168.582V255.59H172.293V253.734H170.438V251.879H163.016V253.734H161.16V263.012H163.016ZM161.16 266.723V268.578H163.016V270.434H170.438V268.578H172.293V259.301H170.438V261.156H168.582V263.012H166.727V264.867H164.871V266.723H161.16ZM161.16 250.023V248.168H172.293V250.023H174.148V251.879H176.004V270.434H174.148V272.289H172.293V274.145H161.16V272.289H159.305V270.434H157.449V251.879H159.305V250.023H161.16ZM257.645 270.434H261.355V274.145H250.223V270.434H253.934V255.59H250.223V251.879H252.078V250.023H253.934V248.168H257.645V270.434ZM346.707 270.434H350.418V274.145H339.285V270.434H342.996V255.59H339.285V251.879H341.141V250.023H342.996V248.168H346.707V270.434ZM407.938 263.012V261.156H409.793V259.301H411.648V257.445H413.504V255.59H417.215V253.734H415.359V251.879H407.938V253.734H406.082V263.012H407.938ZM406.082 266.723V268.578H407.938V270.434H415.359V268.578H417.215V259.301H415.359V261.156H413.504V263.012H411.648V264.867H409.793V266.723H406.082ZM406.082 250.023V248.168H417.215V250.023H419.07V251.879H420.926V270.434H419.07V272.289H417.215V274.145H406.082V272.289H404.227V270.434H402.371V251.879H404.227V250.023H406.082ZM452.469 263.012V261.156H454.324V259.301H456.18V257.445H458.035V255.59H461.746V253.734H459.891V251.879H452.469V253.734H450.613V263.012H452.469ZM450.613 266.723V268.578H452.469V270.434H459.891V268.578H461.746V259.301H459.891V261.156H458.035V263.012H456.18V264.867H454.324V266.723H450.613ZM450.613 250.023V248.168H461.746V250.023H463.602V251.879H465.457V270.434H463.602V272.289H461.746V274.145H450.613V272.289H448.758V270.434H446.902V251.879H448.758V250.023H450.613ZM73.9531 337.012V335.156H75.8086V333.301H77.6641V331.445H79.5195V329.59H83.2305V327.734H81.375V325.879H73.9531V327.734H72.0977V337.012H73.9531ZM72.0977 340.723V342.578H73.9531V344.434H81.375V342.578H83.2305V333.301H81.375V335.156H79.5195V337.012H77.6641V338.867H75.8086V340.723H72.0977ZM72.0977 324.023V322.168H83.2305V324.023H85.0859V325.879H86.9414V344.434H85.0859V346.289H83.2305V348.145H72.0977V346.289H70.2422V344.434H68.3867V325.879H70.2422V324.023H72.0977ZM213.113 344.434H216.824V348.145H205.691V344.434H209.402V329.59H205.691V325.879H207.547V324.023H209.402V322.168H213.113V344.434ZM296.609 337.012V335.156H298.465V333.301H300.32V331.445H302.176V329.59H305.887V327.734H304.031V325.879H296.609V327.734H294.754V337.012H296.609ZM294.754 340.723V342.578H296.609V344.434H304.031V342.578H305.887V333.301H304.031V335.156H302.176V337.012H300.32V338.867H298.465V340.723H294.754ZM294.754 324.023V322.168H305.887V324.023H307.742V325.879H309.598V344.434H307.742V346.289H305.887V348.145H294.754V346.289H292.898V344.434H291.043V325.879H292.898V324.023H294.754ZM385.672 337.012V335.156H387.527V333.301H389.383V331.445H391.238V329.59H394.949V327.734H393.094V325.879H385.672V327.734H383.816V337.012H385.672ZM383.816 340.723V342.578H385.672V344.434H393.094V342.578H394.949V333.301H393.094V335.156H391.238V337.012H389.383V338.867H387.527V340.723H383.816ZM383.816 324.023V322.168H394.949V324.023H396.805V325.879H398.66V344.434H396.805V346.289H394.949V348.145H383.816V346.289H381.961V344.434H380.105V325.879H381.961V324.023H383.816ZM458.035 344.434H461.746V348.145H450.613V344.434H454.324V329.59H450.613V325.879H452.469V324.023H454.324V322.168H458.035V344.434ZM34.9883 418.434H38.6992V422.145H27.5664V418.434H31.2773V403.59H27.5664V399.879H29.4219V398.023H31.2773V396.168H34.9883V418.434ZM96.2188 411.012V409.156H98.0742V407.301H99.9297V405.445H101.785V403.59H105.496V401.734H103.641V399.879H96.2188V401.734H94.3633V411.012H96.2188ZM94.3633 414.723V416.578H96.2188V418.434H103.641V416.578H105.496V407.301H103.641V409.156H101.785V411.012H99.9297V412.867H98.0742V414.723H94.3633ZM94.3633 398.023V396.168H105.496V398.023H107.352V399.879H109.207V418.434H107.352V420.289H105.496V422.145H94.3633V420.289H92.5078V418.434H90.6523V399.879H92.5078V398.023H94.3633ZM163.016 411.012V409.156H164.871V407.301H166.727V405.445H168.582V403.59H172.293V401.734H170.438V399.879H163.016V401.734H161.16V411.012H163.016ZM161.16 414.723V416.578H163.016V418.434H170.438V416.578H172.293V407.301H170.438V409.156H168.582V411.012H166.727V412.867H164.871V414.723H161.16ZM161.16 398.023V396.168H172.293V398.023H174.148V399.879H176.004V418.434H174.148V420.289H172.293V422.145H161.16V420.289H159.305V418.434H157.449V399.879H159.305V398.023H161.16ZM279.91 418.434H283.621V422.145H272.488V418.434H276.199V403.59H272.488V399.879H274.344V398.023H276.199V396.168H279.91V418.434ZM368.973 418.434H372.684V422.145H361.551V418.434H365.262V403.59H361.551V399.879H363.406V398.023H365.262V396.168H368.973V418.434ZM430.203 411.012V409.156H432.059V407.301H433.914V405.445H435.77V403.59H439.48V401.734H437.625V399.879H430.203V401.734H428.348V411.012H430.203ZM428.348 414.723V416.578H430.203V418.434H437.625V416.578H439.48V407.301H437.625V409.156H435.77V411.012H433.914V412.867H432.059V414.723H428.348ZM428.348 398.023V396.168H439.48V398.023H441.336V399.879H443.191V418.434H441.336V420.289H439.48V422.145H428.348V420.289H426.492V418.434H424.637V399.879H426.492V398.023H428.348ZM34.9883 492.434H38.6992V496.145H27.5664V492.434H31.2773V477.59H27.5664V473.879H29.4219V472.023H31.2773V470.168H34.9883V492.434ZM79.5195 492.434H83.2305V496.145H72.0977V492.434H75.8086V477.59H72.0977V473.879H73.9531V472.023H75.8086V470.168H79.5195V492.434ZM213.113 492.434H216.824V496.145H205.691V492.434H209.402V477.59H205.691V473.879H207.547V472.023H209.402V470.168H213.113V492.434ZM296.609 485.012V483.156H298.465V481.301H300.32V479.445H302.176V477.59H305.887V475.734H304.031V473.879H296.609V475.734H294.754V485.012H296.609ZM294.754 488.723V490.578H296.609V492.434H304.031V490.578H305.887V481.301H304.031V483.156H302.176V485.012H300.32V486.867H298.465V488.723H294.754ZM294.754 472.023V470.168H305.887V472.023H307.742V473.879H309.598V492.434H307.742V494.289H305.887V496.145H294.754V494.289H292.898V492.434H291.043V473.879H292.898V472.023H294.754ZM413.504 492.434H417.215V496.145H406.082V492.434H409.793V477.59H406.082V473.879H407.938V472.023H409.793V470.168H413.504V492.434Z" fill="#F1F1F1"/>
<path d="M400.151 152.821L410.954 153.568L387.783 488.918L376.98 488.171L400.151 152.821Z" fill="#E36A00"/>
<rect x="204.307" y="183.262" width="127.482" height="144.517" rx="5" transform="rotate(6.48289 204.307 183.262)" fill="#E36A00"/>
<ellipse cx="306.659" cy="92.3156" rx="49.2258" ry="49.8569" transform="rotate(-15.6969 306.659 92.3156)" fill="#E36A00"/>
<ellipse cx="274.609" cy="190.616" rx="66.8967" ry="62.479" transform="rotate(6.48289 274.609 190.616)" fill="#E36A00"/>
<rect x="222.503" y="288.489" width="59.0037" height="139.589" rx="29.5018" transform="rotate(27.0137 222.503 288.489)" fill="#E36A00"/>
<rect x="309.917" y="378.88" width="59.0037" height="118.651" rx="29.5018" transform="rotate(-11.6403 309.917 378.88)" fill="#E36A00"/>
<rect x="246.193" y="330.753" width="59.0037" height="139.589" rx="29.5018" transform="rotate(-40.7017 246.193 330.753)" fill="#E36A00"/>
<rect x="199.781" y="364.015" width="59.0037" height="144.661" rx="29.5018" transform="rotate(50.1114 199.781 364.015)" fill="#E36A00"/>
<path d="M293.764 194.679C293.002 187.534 296.336 180.563 302.268 176.507C315.217 167.653 332.867 176.519 335.241 192.025C342.144 237.12 359.539 262.381 396.166 283.095C410.057 290.95 414.36 309.541 401.134 318.471C395.607 322.203 386.514 324.334 380.398 321.675C323.947 297.13 301.64 268.496 293.764 194.679Z" fill="#E36A00"/>
<path d="M154.334 97.0891C161.175 81.9987 178.954 75.3111 194.044 82.152L244.131 104.857C259.221 111.698 265.909 129.477 259.068 144.567L192.12 292.249C185.279 307.339 167.5 314.027 152.41 307.186L102.324 284.48C87.2332 277.64 80.5456 259.861 87.3864 244.77L154.334 97.0891Z" fill="#E36A00"/>
<rect x="226.673" y="62.9483" width="13.9096" height="173.843" rx="3" transform="rotate(-74.4401 226.673 62.9483)" fill="#E36A00"/>
<rect x="273.426" y="31.5111" width="92.3648" height="62.0385" rx="30" transform="rotate(14.4289 273.426 31.5111)" fill="#E36A00"/>
<rect x="413.582" y="156.949" width="1.6109" height="125.773" transform="rotate(-4.89092 413.582 156.949)" fill="#E36A00"/>
<rect x="403" y="155" width="16" height="2" fill="#E36A00"/>
<path d="M420.885 274.212C422.237 271.034 426.71 270.947 428.184 274.071L436.478 291.652C436.818 292.374 436.935 293.18 436.813 293.969L432.702 320.61C432.4 322.561 430.722 324 428.748 324H420.143C418.11 324 416.401 322.475 416.169 320.455L413.12 293.808C413.041 293.121 413.142 292.425 413.413 291.788L420.885 274.212Z" fill="#E36A00"/>
</svg>